<?xml version="1.0" encoding="UTF-8"?>
<!DOCTYPE svg PUBLIC "-//W3C//DTD SVG 1.1//EN" "http://www.w3.org/Graphics/SVG/1.1/DTD/svg11.dtd">
<!-- Creator: CorelDRAW -->
<svg xmlns="http://www.w3.org/2000/svg" xml:space="preserve" width="0.316665in" height="0.316665in" style="shape-rendering:geometricPrecision; text-rendering:geometricPrecision; image-rendering:optimizeQuality; fill-rule:evenodd; clip-rule:evenodd"
viewBox="0 0 0.0179032 0.0179032"
 xmlns:xlink="http://www.w3.org/1999/xlink">
 <defs>
  <style type="text/css">
   <![CDATA[
    .str0 {stroke:#004CD2;stroke-width:0.000235496}
    .fil0 {fill:none}
    .fil1 {fill:#004CD2}
    .fil2 {fill:#FFD712}
   ]]>
  </style>
 </defs>
 <g id="Layer_x0020_1">
  <metadata id="CorelCorpID_0Corel-Layer"/>
  <rect class="fil0" width="0.0179032" height="0.0179032"/>
  <g id="_514915320">
   <path id="_514914720" class="fil0 str0" d="M0.00853259 0.0060176l-0.00153673 -0.000418683 -0.000377505 0.000314068c-0.000118638,-0.000177846 -0.000181185,-0.000384628 -0.000181185,-0.00059831l0 -0.00034434c0,-0.000192537 0.0001567,-0.000349237 0.000349237,-0.000349237 0.000192537,0 0.000349237,0.0001567 0.000349237,0.000349237l0 0.000139784c0,3.82847e-005 3.13846e-005,6.98919e-005 6.98919e-005,6.98919e-005 3.85073e-005,0 6.98919e-005,-3.16071e-005 6.98919e-005,-6.98919e-005l0 -0.000139784c0,-0.000192537 0.000156478,-0.000349237 0.000349237,-0.000349237 0.000192537,0 0.000349237,0.0001567 0.000349237,0.000349237l0 0.000139784c0,3.82847e-005 3.13846e-005,6.98919e-005 6.98919e-005,6.98919e-005 3.82847e-005,0 6.96693e-005,-3.16071e-005 6.96693e-005,-6.98919e-005l0 -0.000139784c0,-0.000192537 0.0001567,-0.000349237 0.000349237,-0.000349237 0.000192759,0 0.000349237,0.0001567 0.000349237,0.000349237l0 0.00034434c0,0.000213682 -6.25465e-005,0.000420687 -0.000181185,0.00059831l-9.81602e-005 0.000104615z"/>
   <path id="_514914816" class="fil1" d="M0.00633033 0.00811302l-0.000279345 -0.000139784 -0.000452071 0 0 -0.00209542 -0.000977818 0 0 0.00265433 0.000977818 0 0 -0.000279567 0.000386186 0 0.000279345 0.000139784 0.000172726 -0.000279345 -0.000106841 0 0 0zm-0.00101076 0.000139784l-0.000419129 0 0 -0.00209564 0.000419129 0 0 0.00209564 0 0z"/>
   <path id="_514914912" class="fil0 str0" d="M0.00769545 0.0111869c-2.53748e-005,0 -5.05269e-005,-4.45171e-007 -7.59017e-005,-1.5581e-006 -0.000942872,-3.80621e-005 -0.00172393,-0.000837144 -0.00174084,-0.00178135 -8.90342e-006,-0.000487017 0.000173394,-0.000947547 0.00051306,-0.00129678 0.0002996,-0.000308058 0.000464536,-0.000692241 0.000464536,-0.00108177l0.000698473 -0.00044851 0.000279345 0.000279345 0 0.0013965 0.000977818 0 0.0001636 -0.000168275c0.000345008,0.000343004 0.000534873,0.00079975 0.000534873,0.00128632 0,0.000499037 -0.000198101,0.000964241 -0.000558245,0.00130992 -0.000341224,0.000328091 -0.000785282,0.00050616 -0.00125672,0.00050616z"/>
   <path id="_514915008" class="fil1" d="M0.00898244 0.00657696c6.69983e-005,-7.43436e-005 0.000109067,-0.000172059 0.000109067,-0.00027979 0,-0.000231044 -0.000188085,-0.000419351 -0.000419129,-0.000419351l-0.00051996 0 -9.72699e-005 -0.000121532 -0.00109178 -0.000312288 -0.000856064 0.000713164 -0.000647947 0 0 0.000279567 0.000749 0 0.000820228 -0.000683338 0.000864077 0.000246847 0.000294036 0.000367266c3.87299e-005,4.87462e-005 5.5869e-005,0.000109735 4.80785e-005,0.000171391 -7.79049e-006,6.16562e-005 -3.96202e-005,0.000116412 -8.94794e-005,0.000153807 -9.01472e-005,6.7666e-005 -0.000218356,5.854e-005 -0.000298265,-2.13682e-005l-0.000281793 -0.000281793 -0.000796189 0.000636817 0.000174507 0.000218356 0.000600758 -0.000480785 0.00010506 0.000105283c1.5581e-005,1.53584e-005 3.27201e-005,2.78232e-005 4.96366e-005,4.07332e-005 1.00164e-005,0.000102167 4.71881e-005,0.000162042 0.000104393,0.000225257 -6.69983e-005,7.43436e-005 -0.000108844,0.000171836 -0.000108844,0.000279567 0,0.000107731 4.18461e-005,0.000205224 0.000108844,0.000279345 -6.69983e-005,7.43436e-005 -0.000108844,0.000171391 -0.000108844,0.000279122 0,0.000231266 0.000187862,0.000419129 0.000418906,0.000419129l0.000558912 0c0.000231044,0 0.000419129,-0.000187862 0.000419129,-0.000418906 0,-0.000107731 -4.20687e-005,-0.000204779 -0.000109067,-0.000279122 6.72208e-005,-7.43436e-005 0.000109067,-0.000171613 0.000109067,-0.000279345 0,-0.000107954 -4.20687e-005,-0.000205224 -0.000109067,-0.000279567 6.72208e-005,-7.43436e-005 0.000109067,-0.000171613 0.000109067,-0.000279345 0,-0.000107731 -4.20687e-005,-0.000204779 -0.000109067,-0.000279122zm-0.000310062 0.00153606l-0.000558912 0c-7.70146e-005,0 -0.000139561,-6.27691e-005 -0.000139561,-0.000139784 0,-7.70146e-005 6.27691e-005,-0.000139561 0.000139561,-0.000139561l0.000558912 0c7.70146e-005,0 0.000139561,6.27691e-005 0.000139561,0.000139561 0,7.70146e-005 -6.25465e-005,0.000139784 -0.000139561,0.000139784zm0 -0.000558912l-0.000558912 0c-7.70146e-005,0 -0.000139561,-6.25465e-005 -0.000139561,-0.000139561 0,-7.70146e-005 6.27691e-005,-0.000139784 0.000139561,-0.000139784l0.000558912 0c7.70146e-005,0 0.000139561,6.27691e-005 0.000139561,0.000139784 0,7.70146e-005 -6.25465e-005,0.000139561 -0.000139561,0.000139561zm0 -0.00055869l-0.000517734 0c5.5869e-005,-1.66939e-005 0.000109735,-4.27364e-005 0.000158258,-7.90179e-005 7.0337e-005,-5.27528e-005 0.000122422,-0.000122199 0.000156923,-0.000200327l0.000202553 0c7.70146e-005,0 0.000139561,6.27691e-005 0.000139561,0.000139561 0,7.70146e-005 -6.25465e-005,0.000139784 -0.000139561,0.000139784zm0 -0.00055869l-0.000163823 0c-1.291e-005,-8.81439e-005 -4.65204e-005,-0.000171836 -0.000103947,-0.000243509l-2.87135e-005 -3.60589e-005 0.000296484 0c7.70146e-005,0 0.000139561,6.27691e-005 0.000139561,0.000139784 0,7.70146e-005 -6.25465e-005,0.000139784 -0.000139561,0.000139784z"/>
   <path id="_514915248" class="fil1" d="M0.0123045 0.0111865l0 0.000418906 -0.000935527 0 -0.00038396 -0.000255751 -0.00117748 -0.000417571c-0.000111961,-3.93976e-005 -0.000232157,-3.16071e-005 -0.000338107,2.22586e-005 -0.000105951,5.38657e-005 -0.000183188,0.000146016 -0.000217911,0.000259757 -5.94303e-005,0.000196766 2.89361e-005,0.00040978 0.000210566,0.00050616l0.000302494 0.000160707 -0.000439829 1.33551e-006 -0.000180739 -0.000452071c-5.94303e-005,-0.000148019 -0.000200995,-0.000243731 -0.000360811,-0.000243731 -0.000124648,0 -0.000242618,6.05433e-005 -0.000315404,0.000161597 -7.27855e-005,0.000101499 -9.25956e-005,0.000232602 -5.27528e-005,0.000350795l4.22913e-005 0.000125316 -0.0003065 -0.000167384c-9.74925e-005,-5.36431e-005 -0.000213905,-6.38821e-005 -0.00031941,-2.82684e-005 -0.000105506,3.51685e-005 -0.000192314,0.000113519 -0.000237944,0.000214795 -8.9702e-005,0.000198101 -7.12274e-006,0.0004287 0.000187862,0.000525079l0.00068957 0.000340333 0.00143123 0.000290919 0.00185725 2.67103e-006 0.000545112 -0.000108844 0 0.000388412 0.000977818 0 0 -0.00209542 -0.000977818 0 0 0zm-0.00360989 0.000324752c4.69656e-005,-6.54402e-005 0.000160039,-5.16399e-005 0.000189865,2.29263e-005l0.000139784 0.000349237 -0.000251744 6.67757e-007 -9.25956e-005 -0.000274448c-1.13519e-005,-3.3833e-005 -6.00981e-006,-6.94467e-005 1.46906e-005,-9.83828e-005zm0.00303718 0.00121176l-0.00178847 0 -0.00136534 -0.000273112 -0.000673099 -0.000332098c-5.89852e-005,-2.91587e-005 -8.41373e-005,-9.90506e-005 -5.69819e-005,-0.000159371 1.42455e-005,-3.1162e-005 3.96202e-005,-5.43109e-005 7.23403e-005,-6.4995e-005 3.22749e-005,-1.11293e-005 6.67757e-005,-8.01308e-006 9.68247e-005,8.68084e-006l0.000479894 0.000262206 0.00132594 0 0.000551344 -0.000275784 -0.00078083 -0.000414899c-6.41046e-005,-3.40556e-005 -9.52666e-005,-0.000109067 -7.43436e-005,-0.000178514 1.20196e-005,-4.00654e-005 3.93976e-005,-7.27855e-005 7.6792e-005,-9.17053e-005 3.73944e-005,-1.91424e-005 7.96856e-005,-2.15908e-005 0.000119306,-8.01308e-006l0.00112962 0.000396425 0.000439384 0.000293145 0.00102033 0 0 0.000723626 -0.000572713 0.000114409zm0.00127119 0.000279345l-0.000419129 0 0 -0.00153651 0.000419129 0 0 0.00153651z"/>
   <path id="_514915344" class="fil2" d="M0.00735645 0.00951642c-0.000108844,0 -0.000106618,-6.67757e-006 -0.000106618,9.2373e-005 0,2.2036e-005 -2.67103e-006,7.90179e-005 1.11293e-006,9.70473e-005 8.90342e-007,3.56137e-006 0.000488798,0.00056047 0.000547338,0.000633033 1.20196e-005,1.49132e-005 3.18297e-005,4.47397e-005 5.11947e-005,4.85237e-005 1.51358e-005,2.89361e-006 0.000168275,8.90342e-007 0.000196988,8.90342e-007 3.3833e-005,0 6.05433e-005,3.1162e-006 6.90015e-005,-2.8491e-005 5.56464e-006,-2.07005e-005 -1.71391e-005,-4.34042e-005 -3.33878e-005,-6.2324e-005 -6.90015e-005,-7.96856e-005 -0.000450736,-0.000505269 -0.000496588,-0.000580281 0.000164268,-3.13846e-005 0.000386631,-0.000101054 0.000451181,-0.000347233 3.56137e-006,-1.35777e-005 4.22913e-006,-3.1162e-005 1.00164e-005,-4.25138e-005 1.66939e-005,-3.56137e-006 9.34859e-006,-2.67103e-006 2.60425e-005,-2.67103e-006 0.000214795,1.78068e-006 0.00020144,1.75843e-005 0.00020144,-9.52666e-005 0,-1.80294e-005 8.90342e-007,-3.78395e-005 0,-5.56464e-005 -1.33551e-006,-2.71554e-005 -9.12601e-006,-2.07005e-005 -1.69165e-005,-3.45008e-005 -3.62814e-005,-9.79376e-006 -0.000166494,-3.1162e-006 -0.000214795,-4.00654e-006l-2.82684e-005 -8.92568e-005c-1.20196e-005,-3.09394e-005 -3.87299e-005,-6.1211e-005 -4.22913e-005,-7.52339e-005l0.000261315 0c4.83011e-005,-2.44844e-006 3.89525e-005,-4.51849e-005 3.89525e-005,-8.90342e-005 0,-1.98101e-005 1.33551e-006,-4.65204e-005 -4.45171e-007,-6.52176e-005 -2.89361e-006,-2.71554e-005 -1.42455e-005,-2.40392e-005 -2.51522e-005,-3.36104e-005l-0.000927069 -1.33551e-006c-8.50277e-005,0 -6.92241e-005,8.68084e-006 -6.96693e-005,0.000163378 -2.22586e-007,4.89688e-005 6.67757e-006,6.16562e-005 5.65367e-005,6.14336e-005 0.000126651,-4.45171e-007 0.000299823,-1.20196e-005 0.00039776,6.47724e-005 1.51358e-005,1.1797e-005 4.563e-005,4.07332e-005 5.16399e-005,6.45498e-005 -0.000151581,-2.22586e-007 -0.000308949,-1.78068e-006 -0.000460084,-4.45171e-007 -6.03207e-005,6.67757e-007 -4.58526e-005,5.18624e-005 -4.58526e-005,0.000104615 0,0.000101722 -1.22422e-005,8.48051e-005 0.000219915,8.48051e-005 9.77151e-005,0 0.000206114,-4.45171e-006 0.000302494,4.45171e-007 -9.37085e-005,0.000196098 -0.000205224,0.000191201 -0.00041579,0.000191201z"/>
  </g>
 </g>
</svg>
